<svg xmlns="http://www.w3.org/2000/svg" width="26.888" height="40" viewBox="0 0 26.888 40"><g transform="translate(-1185 -16)"><path d="M1198.444,16C1191.027,16,1185,22.3,1185,30.062a14.343,14.343,0,0,0,2.017,7.383l10.516,18a1.061,1.061,0,0,0,.762.539,1.1,1.1,0,0,0,1.143-.562l10.546-18.165a14.354,14.354,0,0,0,1.9-7.2C1211.888,22.3,1205.861,16,1198.444,16Zm0,7.031a6.9,6.9,0,0,1,6.722,7.031,6.859,6.859,0,0,1-6.722,7.031" transform="translate(0)" fill="#f98f8f"/><path d="M1347,37.094V56a1.067,1.067,0,0,0,.969-.576l10.282-18.165a14.64,14.64,0,0,0,1.857-7.2C1360.108,22.3,1354.231,16,1347,16v7.031" transform="translate(-148.22)" fill="#fe7676"/><g transform="translate(1190.369 21.655)"><rect width="3.211" height="17.113" transform="translate(6.46 0)" fill="#fff"/><rect width="2.964" height="16.131" transform="translate(0 10.038) rotate(-90)" fill="#fff"/></g></g></svg>