<svg xmlns="http://www.w3.org/2000/svg" width="26.888" height="40" viewBox="0 0 26.888 40"><g transform="translate(-685 -16)"><path d="M698.444,16C691.027,16,685,22.3,685,30.062a14.344,14.344,0,0,0,2.017,7.383l10.516,18a1.061,1.061,0,0,0,.762.539,1.1,1.1,0,0,0,1.143-.562l10.546-18.165a14.355,14.355,0,0,0,1.9-7.2C711.888,22.3,705.861,16,698.444,16Zm0,7.031a6.9,6.9,0,0,1,6.722,7.031,6.859,6.859,0,0,1-6.722,7.031" transform="translate(0 0)" fill="#71c9c0"/><path d="M847,37.094V56a1.067,1.067,0,0,0,.969-.576l10.282-18.165a14.64,14.64,0,0,0,1.857-7.2C860.108,22.3,854.231,16,847,16v7.031" transform="translate(-148.22)" fill="#56bbb5"/><g transform="translate(690.334 21.655)"><rect width="3.211" height="17.113" transform="translate(6.46 0)" fill="#fff"/><rect width="2.964" height="16.131" transform="translate(0 10.038) rotate(-90)" fill="#fff"/></g></g></svg>