<?xml version="1.0" encoding="UTF-8"?>
<svg width="2362px" height="1042px" viewBox="0 0 2362 1042" version="1.1" xmlns="http://www.w3.org/2000/svg" xmlns:xlink="http://www.w3.org/1999/xlink">
    <!-- Generator: Sketch 54.1 (76490) - https://sketchapp.com -->
    <title>Fill 1 Copy 3</title>
    <desc>Created with Sketch.</desc>
    <g id="1000-/-Home" stroke="none" stroke-width="1" fill="none" fill-rule="evenodd">
        <g id="Artboard" fill="#5EB7B3">
            <path d="M482.141089,1041.24474 C406.519165,1035.928 316.529841,1025.90762 259.419871,972.249657 C186.277016,903.528188 218.860611,815.273851 202.606643,729.144382 C175.155104,583.682399 22.2212038,476.949392 1.39721991,336.613814 C-23.3718541,169.699992 288.3787,271.377055 365.361508,248.453732 C421.781702,231.654276 662.661409,57.4449195 768.239488,30.9517805 C865.834042,6.46180132 1044.78671,-9.11887521 1145.51473,5.90070583 C1283.27551,26.4411016 1393.49025,111.509676 1471.33093,207.461706 C1549.1716,303.413735 1700.05477,295.15966 1828.3493,293.815374 C1931.01008,292.738298 1993.00941,304.098384 2064.25783,382.752378 C2161.55466,490.161645 2413.11771,622.417944 2352.76618,753.503664 C2320.29755,824.027886 1814.726,1020.70298 1589.76055,984.452098 C1436.24398,959.715041 623.16013,1051.1608 482.141089,1041.24474 Z" id="Fill-1-Copy-3" transform="translate(1181.000000, 521.000000) scale(-1, 1) translate(-1181.000000, -521.000000) "></path>
        </g>
    </g>
</svg>