<svg xmlns="http://www.w3.org/2000/svg" width="26.024" height="40" viewBox="0 0 26.024 40"><g transform="translate(-229 -15.474)"><g transform="translate(229 15.474)"><path d="M242.012,16C234.834,16,229,22.261,229,29.966a14.529,14.529,0,0,0,1.952,7.332L241.13,55.176a1.028,1.028,0,0,0,.738.535,1.055,1.055,0,0,0,1.106-.559l10.207-18.041a14.545,14.545,0,0,0,1.843-7.146C255.024,22.261,249.191,16,242.012,16Zm0,6.983a6.777,6.777,0,0,1,6.506,6.983,6.736,6.736,0,0,1-6.506,6.983" transform="translate(-229 -16)" fill="#395475"/></g><path d="M391,36.949V55.725a1.059,1.059,0,0,0,.961-.572l10.207-18.041a14.545,14.545,0,0,0,1.843-7.146C404.012,22.261,398.179,16,391,16v6.983" transform="translate(-148.988 -0.252)" fill="#294266"/><g transform="translate(233.771 21.647)"><rect width="3.187" height="16.988" transform="translate(6.413)" fill="#fff"/><rect width="2.942" height="16.013" transform="translate(0 9.965) rotate(-90)" fill="#fff"/></g></g></svg>