<?xml version="1.0" encoding="UTF-8"?>
<svg width="10px" height="10px" viewBox="0 0 10 10" version="1.1" xmlns="http://www.w3.org/2000/svg" xmlns:xlink="http://www.w3.org/1999/xlink">
    <!-- Generator: Sketch 54.1 (76490) - https://sketchapp.com -->
    <title>Shape</title>
    <desc>Created with Sketch.</desc>
    <g id="Symbols" stroke="none" stroke-width="1" fill="none" fill-rule="evenodd">
        <g id="Header-/-June-/-1440" transform="translate(-1185.000000, -24.000000)" fill="#FF7677" fill-rule="nonzero">
            <g id="Stacked-Group-3" transform="translate(774.000000, 22.000000)">
                <g id="Group-2" transform="translate(411.000000, 1.000000)">
                    <path d="M4.995,1 C2.235,1 0,3.24 0,6 C0,8.76 2.235,11 4.995,11 C7.76,11 10,8.76 10,6 C10,3.24 7.76,1 4.995,1 Z M8.46,4 L6.985,4 C6.825,3.375 6.595,2.775 6.295,2.22 C7.215,2.535 7.98,3.175 8.46,4 Z M5,2.02 C5.415,2.62 5.74,3.285 5.955,4 L4.045,4 C4.26,3.285 4.585,2.62 5,2.02 Z M1.13,7 C1.05,6.68 1,6.345 1,6 C1,5.655 1.05,5.32 1.13,5 L2.82,5 C2.78,5.33 2.75,5.66 2.75,6 C2.75,6.34 2.78,6.67 2.82,7 L1.13,7 Z M1.54,8 L3.015,8 C3.175,8.625 3.405,9.225 3.705,9.78 C2.785,9.465 2.02,8.83 1.54,8 L1.54,8 Z M3.015,4 L1.54,4 C2.02,3.17 2.785,2.535 3.705,2.22 C3.405,2.775 3.175,3.375 3.015,4 L3.015,4 Z M5,9.98 C4.585,9.38 4.26,8.715 4.045,8 L5.955,8 C5.74,8.715 5.415,9.38 5,9.98 Z M6.17,7 L3.83,7 C3.785,6.67 3.75,6.34 3.75,6 C3.75,5.66 3.785,5.325 3.83,5 L6.17,5 C6.215,5.325 6.25,5.66 6.25,6 C6.25,6.34 6.215,6.67 6.17,7 Z M6.295,9.78 C6.595,9.225 6.825,8.625 6.985,8 L8.46,8 C7.98,8.825 7.215,9.465 6.295,9.78 L6.295,9.78 Z M7.18,7 C7.22,6.67 7.25,6.34 7.25,6 C7.25,5.66 7.22,5.33 7.18,5 L8.87,5 C8.95,5.32 9,5.655 9,6 C9,6.345 8.95,6.68 8.87,7 L7.18,7 Z" id="Shape"></path>
                </g>
            </g>
        </g>
    </g>
</svg>