<?xml version="1.0" encoding="UTF-8"?>
<svg width="26px" height="37px" viewBox="0 0 26 37" version="1.1" xmlns="http://www.w3.org/2000/svg" xmlns:xlink="http://www.w3.org/1999/xlink">
    <!-- Generator: Sketch 54.1 (76490) - https://sketchapp.com -->
    <title>Shape Copy 16</title>
    <desc>Created with Sketch.</desc>
    <g id="Symbols" stroke="none" stroke-width="1" fill="none" fill-rule="evenodd">
        <g id="Icon-/-Location-/-Teal" fill="#5EB7B3" fill-rule="nonzero">
            <path d="M20.2307692,13.9752336 L20.2307692,10.3668717 L14.8009063,10.3668717 L14.8009063,4.86842105 L11.2375552,4.86842105 L11.2375552,10.3668717 L5.80769231,10.3668717 L5.80769231,13.9752336 L11.2375552,13.9752336 L11.2375552,19.4736842 L14.8009063,19.4736842 L14.8009063,13.9752336 L20.2307692,13.9752336 Z M13,0 C16.606268,0 19.6744976,1.25939027 22.2046986,3.77817081 C24.7348995,6.29695135 26,9.35133209 26,12.941313 C26,14.7363085 25.5492175,16.7918653 24.6476524,19.1079837 C23.7460873,21.424102 22.6554821,23.5954623 21.3758367,25.6220646 C20.0961983,27.6486669 18.8310978,29.5449885 17.5805353,31.3110293 C16.3299727,33.0770702 15.2684534,34.4812185 14.3959771,35.5234742 L13,37 C12.6510127,36.5946795 12.1856888,36.0590793 11.6040333,35.3931994 C11.0223778,34.7273155 9.97539642,33.3955487 8.46308904,31.397899 C6.95078365,29.4002512 5.62751644,27.4605027 4.49328739,25.5786535 C3.35905835,23.6968043 2.32661986,21.5688709 1.39597192,19.1948533 C0.465323972,16.8208357 0,14.7363292 0,12.9413338 C0,9.35135284 1.25055755,6.31144939 3.75167266,3.82162341 C6.3109689,1.27386261 9.39374145,0 13,0 Z" id="Shape-Copy-16"></path>
        </g>
    </g>
</svg>